HIERARCHY
ROOT Hip
{
	OFFSET 0 1.131 0.0052
	CHANNELS 6 Xposition Yposition Zposition Xrotation Yrotation Zrotation
	JOINT Abdomen
	{
		OFFSET 0 -0.047353 -0.05
		CHANNELS 3 Xrotation Zrotation Yrotation
		JOINT Chest
		{
			OFFSET 0 0.132153 0.007439
			CHANNELS 3 Xrotation Zrotation Yrotation
			JOINT Neck
			{
				OFFSET 0 0.3078 0.006161
				CHANNELS 3 Xrotation Zrotation Yrotation
				JOINT Head_comp
				{
					OFFSET 0 0.0884 0.013
					CHANNELS 3 Xrotation Yrotation Zrotation
					End Site
					{
						OFFSET -0 0.156 0.0624
					}
				}
			}
			JOINT Left_Collar
			{
				OFFSET 0.02282 0.250342 0.017193
				CHANNELS 2 Yrotation Zrotation
				JOINT Left_Shoulder
				{
					OFFSET 0.15421 0 0
					CHANNELS 3 Xrotation Yrotation Zrotation
					JOINT Left_Forearm
					{
						OFFSET 0.265212 0 0
						CHANNELS 2 Yrotation Xrotation
						JOINT Left_Hand
						{
							OFFSET 0.27571 0 0
							CHANNELS 2 Zrotation Yrotation
							JOINT L1ProxPhalanx
							{
								OFFSET 0.014142 0.001733 0.014142
								CHANNELS 3 Yrotation Zrotation Xrotation
								JOINT L1MidPhalanx
								{
									OFFSET 0.04 0 0
									CHANNELS 1 Zrotation
									JOINT L1DistPhalanx
									{
										OFFSET 0.035 0 0
										CHANNELS 1 Zrotation
										End Site
										{
											OFFSET 0.029 -0 -0
										}
									}
								}
							}
							JOINT L2ProxPhalanx
							{
								OFFSET 0.0821037 0.001578 0.0219996
								CHANNELS 2 Yrotation Zrotation
								JOINT L2MidPhalanx
								{
									OFFSET 0.04 0 0
									CHANNELS 1 Zrotation
									JOINT L2DistPhalanx
									{
										OFFSET 0.028 0 0
										CHANNELS 1 Zrotation
										End Site
										{
											OFFSET 0.02 -0 -0
										}
									}
								}
							}
							JOINT L3ProxPhalanx
							{
								OFFSET 0.083 0 0
								CHANNELS 2 Yrotation Zrotation
								JOINT L3MidPhalanx
								{
									OFFSET 0.053 0 0
									CHANNELS 1 Zrotation
									JOINT L3DistPhalanx
									{
										OFFSET 0.03 0 0
										CHANNELS 1 Zrotation
										End Site
										{
											OFFSET 0.023 -0 -0
										}
									}
								}
							}
							JOINT L4ProxPhalanx
							{
								OFFSET 0.077274 -0.000761 -0.0207055
								CHANNELS 2 Yrotation Zrotation
								JOINT L4MidPhalanx
								{
									OFFSET 0.05 0 0
									CHANNELS 1 Zrotation
									JOINT L4DistPhalanx
									{
										OFFSET 0.03 0 0
										CHANNELS 1 Zrotation
										End Site
										{
											OFFSET 0.023 -0 -0
										}
									}
								}
							}
							JOINT L5ProxPhalanx
							{
								OFFSET 0.0675499 -0.001644 -0.039
								CHANNELS 2 Yrotation Zrotation
								JOINT L5MidPhalanx
								{
									OFFSET 0.04 0 0
									CHANNELS 1 Zrotation
									JOINT L5DistPhalanx
									{
										OFFSET 0.021 0 0
										CHANNELS 1 Zrotation
										End Site
										{
											OFFSET 0.022 -0 -0
										}
									}
								}
							}
						}
					}
				}
			}
			JOINT Right_Collar
			{
				OFFSET -0.02282 0.250342 0.017193
				CHANNELS 2 Yrotation Zrotation
				JOINT Right_Shoulder
				{
					OFFSET -0.15421 0 0
					CHANNELS 3 Xrotation Yrotation Zrotation
					JOINT Right_Forearm
					{
						OFFSET -0.265212 0 0
						CHANNELS 2 Yrotation Xrotation
						JOINT Right_Hand
						{
							OFFSET -0.27571 3e-006 0
							CHANNELS 2 Zrotation Yrotation
							JOINT R1ProxPhalanx
							{
								OFFSET -0.014142 0.001733 0.014142
								CHANNELS 3 Yrotation Zrotation Xrotation
								JOINT R1MidPhalanx
								{
									OFFSET -0.04 0 0
									CHANNELS 1 Zrotation
									JOINT R1DistPhalanx
									{
										OFFSET -0.035 0 0
										CHANNELS 1 Zrotation
										End Site
										{
											OFFSET -0.029 -0 -0
										}
									}
								}
							}
							JOINT R2ProxPhalanx
							{
								OFFSET -0.0821037 0.001578 0.0219996
								CHANNELS 2 Yrotation Zrotation
								JOINT R2MidPhalanx
								{
									OFFSET -0.04 0 0
									CHANNELS 1 Zrotation
									JOINT R2DistPhalanx
									{
										OFFSET -0.028 0 0
										CHANNELS 1 Zrotation
										End Site
										{
											OFFSET -0.02 -0 -0
										}
									}
								}
							}
							JOINT R3ProxPhalanx
							{
								OFFSET -0.083 0 0
								CHANNELS 2 Yrotation Zrotation
								JOINT R3MidPhalanx
								{
									OFFSET -0.053 0 0
									CHANNELS 1 Zrotation
									JOINT R3DistPhalanx
									{
										OFFSET -0.03 0 0
										CHANNELS 1 Zrotation
										End Site
										{
											OFFSET -0.023 -0 -0
										}
									}
								}
							}
							JOINT R4ProxPhalanx
							{
								OFFSET -0.077274 -0.000761 -0.0207055
								CHANNELS 2 Yrotation Zrotation
								JOINT R4MidPhalanx
								{
									OFFSET -0.05 0 0
									CHANNELS 1 Zrotation
									JOINT R4DistPhalanx
									{
										OFFSET -0.03 0 0
										CHANNELS 1 Zrotation
										End Site
										{
											OFFSET -0.023 -0 -0
										}
									}
								}
							}
							JOINT R5ProxPhalanx
							{
								OFFSET -0.0675499 -0.001644 -0.039
								CHANNELS 2 Yrotation Zrotation
								JOINT R5MidPhalanx
								{
									OFFSET -0.04 0 0
									CHANNELS 1 Zrotation
									JOINT R5DistPhalanx
									{
										OFFSET -0.021 0 0
										CHANNELS 1 Zrotation
										End Site
										{
											OFFSET -0.022 -0 -0
										}
									}
								}
							}
						}
					}
				}
			}
		}
	}
	JOINT Left_Thigh
	{
		OFFSET 0.1118 -0.1612 -0.0442
		CHANNELS 3 Xrotation Zrotation Yrotation
		JOINT Left_Shin
		{
			OFFSET 0 -0.477856 0
			CHANNELS 1 Xrotation
			JOINT Left_Foot
			{
				OFFSET 0 -0.431952 0
				CHANNELS 2 Xrotation Zrotation
				JOINT Left_Toe
				{
					OFFSET 0 -0.0442 0.119
					CHANNELS 1 Xrotation
					End Site
					{
						OFFSET -0 -0 0.07
					}
				}
			}
		}
	}
	JOINT Right_Thigh
	{
		OFFSET -0.1118 -0.1612 -0.0442
		CHANNELS 3 Xrotation Zrotation Yrotation
		JOINT Right_Shin
		{
			OFFSET 0 -0.477856 0
			CHANNELS 1 Xrotation
			JOINT Right_Foot
			{
				OFFSET 0 -0.431952 0
				CHANNELS 2 Xrotation Zrotation
				JOINT Right_Toe
				{
					OFFSET 0 -0.0442 0.119
					CHANNELS 1 Xrotation
					End Site
					{
						OFFSET -0 -0 0.07
					}
				}
			}
		}
	}
}
MOTION
Frames: 24
Frame Time: 0.008333
0.140912 0.96695 -0.264333 7.4917 7.3712 1.2609 -15.0067 -1.4179 0.4721 10.0481 6.4841 1.1254 28.5801 3.1177 11.4612 -23.8749 18.3276 -13.8449 -2.7546 6.6186 -9.7565 -25.5147 -73.8034 -120.3210 0.0000 13.8570 -2.0802 0 0 0 0 0 0 0 0 0 0 0 0 0 0 0 0 0 0 0 0 0 5.0520 -8.6244 -34.7645 2.3064 82.0842 100.1214 -0.0000 -4.5925 -0.6413 0 0 0 0 0 0 0 0 0 0 0 0 0 0 0 0 0 0 0 0 0 -16.3873 4.9579 2.9528 31.4193 -20.6210 -9.6323 14.1478 -15.2453 -5.2177 -11.6442 31.3910 -26.5240 4.5074 20.3662
0.140711 0.96731 -0.26432 7.6709 7.3858 1.2375 -14.9291 -1.3346 0.5031 9.6543 6.2840 1.0964 28.5854 3.1486 11.5065 -24.0009 18.2982 -13.6795 -2.5931 6.4659 -9.0631 -25.2028 -73.2512 -119.8793 -0.0000 13.9224 -2.2807 0 0 0 0 0 0 0 0 0 0 0 0 0 0 0 0 0 0 0 0 0 4.7977 -8.6122 -35.8767 0.8934 81.7513 98.6412 0.0000 -4.2838 -0.4929 0 0 0 0 0 0 0 0 0 0 0 0 0 0 0 0 0 0 0 0 0 -16.4950 5.0260 3.1755 31.2656 -20.5130 -9.6997 14.1340 -15.3557 -5.1964 -11.6407 31.2561 -26.4147 4.6071 20.2695
0.140536 0.967661 -0.264338 7.8180 7.4605 1.2277 -14.8019 -1.2608 0.4976 9.2697 6.0825 1.0338 28.4841 3.2143 11.4550 -23.9777 18.3295 -13.5981 -2.4377 6.2692 -8.3347 -24.8846 -72.5976 -119.4539 -0.0000 13.8759 -2.5418 0 0 0 0 0 0 0 0 0 0 0 0 0 0 0 0 0 0 0 0 0 4.6192 -8.7333 -36.5241 -0.3021 81.4352 97.2972 0.0000 -3.7535 -0.6168 0 0 0 0 0 0 0 0 0 0 0 0 0 0 0 0 0 0 0 0 0 -16.5777 5.0315 3.2183 31.0955 -20.4030 -9.7508 14.1555 -15.4427 -5.2316 -11.8386 31.1614 -26.3125 4.7005 20.1761
0.140302 0.968082 -0.26431 8.0066 7.4898 1.1640 -14.7336 -1.1517 0.5129 8.9311 5.9345 1.0011 28.3897 3.1846 11.5024 -24.1007 18.2404 -13.4942 -2.3180 6.0677 -7.5908 -24.5618 -71.9635 -119.0849 0.0000 13.9687 -2.6116 0 0 0 0 0 0 0 0 0 0 0 0 0 0 0 0 0 0 0 0 0 4.3419 -8.8185 -37.2190 -0.9577 81.0469 95.9295 0.0000 -3.1976 -0.7518 0 0 0 0 0 0 0 0 0 0 0 0 0 0 0 0 0 0 0 0 0 -16.6737 5.0921 3.2703 30.8892 -20.3114 -9.8015 14.1895 -15.4745 -5.1196 -11.7513 30.8325 -26.2320 4.6911 20.1974
0.139972 0.968484 -0.264234 8.1708 7.5633 1.1360 -14.6544 -1.0943 0.5030 8.6224 5.7908 0.9506 28.2603 3.2111 11.4855 -24.1906 18.2424 -13.4459 -2.1272 5.8281 -6.9201 -24.2756 -71.2435 -118.7306 0.0000 14.0039 -2.6074 0 0 0 0 0 0 0 0 0 0 0 0 0 0 0 0 0 0 0 0 0 4.1287 -8.8766 -37.7889 -1.2565 80.5631 94.9181 0.0000 -2.9784 -0.8188 0 0 0 0 0 0 0 0 0 0 0 0 0 0 0 0 0 0 0 0 0 -16.7229 5.1008 3.2429 30.6257 -20.2044 -9.8564 14.2229 -15.5245 -5.0922 -11.8177 30.6238 -26.1520 4.7228 20.2053
0.139608 0.968844 -0.264165 8.3371 7.6326 1.1418 -14.5574 -1.0209 0.5028 8.3064 5.5418 0.8932 28.1175 3.3163 11.4095 -24.2831 18.3536 -13.4196 -2.0821 5.7101 -6.0725 -23.8988 -70.5399 -118.4048 0.0000 13.9835 -2.6588 0 0 0 0 0 0 0 0 0 0 0 0 0 0 0 0 0 0 0 0 0 3.9003 -8.8697 -38.1257 -1.1494 80.0672 94.2535 0.0000 -2.8551 -0.9191 0 0 0 0 0 0 0 0 0 0 0 0 0 0 0 0 0 0 0 0 0 -16.7822 5.1012 3.3084 30.3817 -20.0865 -9.9140 14.2512 -15.5776 -5.0920 -11.8540 30.4142 -26.1050 4.7338 20.2309
0.139248 0.969177 -0.264089 8.4985 7.6614 1.1200 -14.5026 -0.9512 0.4848 8.0864 5.3802 0.8359 27.9483 3.3483 11.3626 -24.4262 18.3702 -13.4323 -2.0780 5.6267 -5.2036 -23.4215 -69.9006 -118.2125 0.0000 14.0869 -2.6564 0 0 0 0 0 0 0 0 0 0 0 0 0 0 0 0 0 0 0 0 0 3.7144 -8.7917 -38.6277 -0.6056 79.4575 93.8504 0.0000 -2.8856 -0.7592 0 0 0 0 0 0 0 0 0 0 0 0 0 0 0 0 0 0 0 0 0 -16.8533 5.1314 3.3694 30.1879 -19.9874 -9.9726 14.2724 -15.6446 -5.0672 -11.8925 30.2408 -26.0190 4.7676 20.1459
0.138862 0.969477 -0.263977 8.6709 7.7010 1.1174 -14.4597 -0.8829 0.4404 7.8688 5.2105 0.7513 27.7682 3.3352 11.4011 -24.5549 18.4019 -13.4101 -1.9461 5.4274 -4.4111 -23.0415 -69.0935 -117.9414 0.0000 14.0020 -2.7016 0 0 0 0 0 0 0 0 0 0 0 0 0 0 0 0 0 0 0 0 0 3.5525 -8.7046 -38.8742 0.2045 78.9701 93.8227 0.0000 -3.0672 -0.6231 0 0 0 0 0 0 0 0 0 0 0 0 0 0 0 0 0 0 0 0 0 -16.9142 5.1197 3.3561 29.9522 -19.8975 -10.0179 14.2970 -15.7167 -5.0658 -11.9683 30.0615 -25.9796 4.7853 20.1692
0.13841 0.969738 -0.263858 8.8293 7.6785 1.0188 -14.4148 -0.7212 0.4027 7.7055 5.0548 0.6700 27.5408 3.3269 11.4066 -24.6723 18.4223 -13.4053 -1.9136 5.2817 -3.6244 -22.4836 -68.3764 -117.7151 0.0000 13.8137 -2.6515 0 0 0 0 0 0 0 0 0 0 0 0 0 0 0 0 0 0 0 0 0 3.3940 -8.6566 -38.8526 1.2193 78.6054 94.0297 0.0000 -3.2334 -0.5527 0 0 0 0 0 0 0 0 0 0 0 0 0 0 0 0 0 0 0 0 0 -16.9306 5.2163 3.3529 29.6455 -19.9049 -9.9958 14.5787 -15.7237 -4.9093 -11.9110 29.7472 -25.9227 4.7870 20.2445
0.137937 0.970003 -0.263726 8.9743 7.6650 1.0553 -14.3567 -0.6720 0.3514 7.5376 4.8767 0.5823 27.3705 3.3582 11.4072 -24.8092 18.5579 -13.4597 -1.7846 5.1473 -2.8942 -21.9816 -67.6695 -117.4260 0.0000 13.4812 -2.6693 0 0 0 0 0 0 0 0 0 0 0 0 0 0 0 0 0 0 0 0 0 3.2150 -8.5302 -38.8603 2.4866 78.2916 94.5299 0.0000 -3.3301 -0.4362 0 0 0 0 0 0 0 0 0 0 0 0 0 0 0 0 0 0 0 0 0 -17.0082 5.1989 3.4140 29.5520 -19.7650 -10.0802 14.3798 -15.7823 -4.9304 -11.9536 29.5792 -25.8956 4.8179 20.2195
0.137386 0.970196 -0.263553 9.1063 7.6564 1.0841 -14.3004 -0.6710 0.2942 7.4328 4.8030 0.5105 27.1635 3.3401 11.4286 -25.0402 18.5867 -13.5003 -1.7760 4.9419 -2.3571 -21.3541 -66.9158 -117.2420 -0.0000 13.1703 -2.6457 0 0 0 0 0 0 0 0 0 0 0 0 0 0 0 0 0 0 0 0 0 3.0302 -8.5153 -38.6118 3.8313 78.1139 95.2736 0.0000 -3.3894 -0.4365 0 0 0 0 0 0 0 0 0 0 0 0 0 0 0 0 0 0 0 0 0 -17.0061 5.1719 3.3947 29.3014 -19.6898 -10.1202 14.4097 -15.8323 -4.9505 -12.0462 29.4317 -25.8850 4.8306 20.2205
0.136781 0.970305 -0.263317 9.2321 7.6344 1.0994 -14.2598 -0.6482 0.2350 7.3284 4.7037 0.4311 27.0422 3.3251 11.4462 -25.2980 18.5893 -13.5480 -1.7770 4.8892 -1.6507 -20.7340 -66.3661 -116.9944 0.0000 12.7944 -2.7270 0 0 0 0 0 0 0 0 0 0 0 0 0 0 0 0 0 0 0 0 0 2.8690 -8.4406 -38.4080 5.3168 77.9772 96.1940 0.0000 -3.2558 -0.3833 0 0 0 0 0 0 0 0 0 0 0 0 0 0 0 0 0 0 0 0 0 -17.0162 5.1513 3.3205 29.0954 -19.6483 -10.1459 14.4504 -15.8764 -4.9519 -12.1274 29.2954 -25.8911 4.8655 20.2578
0.136159 0.970384 -0.263113 9.3659 7.5697 0.9932 -14.2474 -0.5301 0.1762 7.2750 4.6821 0.3560 26.8546 3.2835 11.4907 -25.5144 18.5982 -13.5858 -1.6326 4.7837 -1.2068 -20.2905 -65.8293 -116.6854 0.0000 12.4620 -2.7378 0 0 0 0 0 0 0 0 0 0 0 0 0 0 0 0 0 0 0 0 0 2.7305 -8.3649 -38.1365 6.8859 77.8446 97.4110 0.0000 -3.2144 -0.4348 0 0 0 0 0 0 0 0 0 0 0 0 0 0 0 0 0 0 0 0 0 -17.0836 5.3248 3.4984 28.9707 -19.6872 -10.1228 14.6727 -15.8828 -4.7839 -12.0904 29.0349 -25.8634 4.8666 20.2739
0.135448 0.970429 -0.262956 9.4830 7.4993 1.0546 -14.2186 -0.6283 0.1139 7.2240 4.7646 0.3111 26.7345 3.1790 11.5584 -25.7523 18.4849 -13.6345 -1.5931 4.7422 -0.4695 -19.7768 -65.4190 -116.3922 0.0000 12.0911 -2.8509 0 0 0 0 0 0 0 0 0 0 0 0 0 0 0 0 0 0 0 0 0 2.6606 -8.3017 -37.7940 8.5120 77.7135 98.9133 0.0000 -3.4044 -0.6127 0 0 0 0 0 0 0 0 0 0 0 0 0 0 0 0 0 0 0 0 0 -17.1547 5.3143 3.5962 28.9472 -19.5850 -10.2203 14.4495 -15.9431 -4.7948 -12.0494 28.9112 -25.9233 4.8923 20.3480
0.134694 0.97046 -0.262737 9.5653 7.3636 1.0825 -14.1681 -0.6695 0.0838 7.1807 4.8204 0.2908 26.6029 2.9628 11.8125 -26.0763 18.1926 -13.4638 -1.4899 4.6757 0.0687 -19.3754 -64.9655 -116.1044 0.0000 11.8214 -2.8457 0 0 0 0 0 0 0 0 0 0 0 0 0 0 0 0 0 0 0 0 0 2.6467 -8.2251 -37.3698 10.1884 77.6084 100.5199 0.0000 -3.5024 -0.6187 0 0 0 0 0 0 0 0 0 0 0 0 0 0 0 0 0 0 0 0 0 -17.1605 5.3614 3.7256 28.8723 -19.5453 -10.2753 14.4251 -15.9876 -4.7664 -12.0333 28.8129 -25.9532 4.8765 20.4101
0.13399 0.97048 -0.262483 9.6701 7.2571 1.1136 -14.1681 -0.7361 0.0518 7.1860 4.9479 0.2816 26.4499 2.8597 11.8647 -26.2373 18.1019 -13.5288 -1.5035 4.5482 0.5139 -18.9000 -64.5007 -115.8718 -0.0000 11.6105 -2.8374 0 0 0 0 0 0 0 0 0 0 0 0 0 0 0 0 0 0 0 0 0 2.6093 -8.1747 -36.9538 11.9635 77.5285 102.2072 0.0000 -3.3668 -0.5307 0 0 0 0 0 0 0 0 0 0 0 0 0 0 0 0 0 0 0 0 0 -17.1333 5.3510 3.7016 28.6724 -19.5337 -10.3107 14.5171 -16.0589 -4.7682 -12.0872 28.7456 -25.9773 4.8870 20.4172
0.133264 0.97046 -0.262227 9.7679 7.1745 1.1022 -14.1853 -0.7846 0.0214 7.2306 5.0743 0.2734 26.2586 2.9775 11.6616 -26.2754 18.2486 -13.7073 -1.6331 4.4903 1.0078 -18.4265 -64.0826 -115.6947 0.0000 11.5621 -2.8669 0 0 0 0 0 0 0 0 0 0 0 0 0 0 0 0 0 0 0 0 0 2.5899 -8.0281 -36.6908 13.7262 77.3736 104.2017 0.0000 -3.7551 -0.5803 0 0 0 0 0 0 0 0 0 0 0 0 0 0 0 0 0 0 0 0 0 -17.1991 5.4243 3.8010 28.6638 -19.5138 -10.3309 14.4826 -16.1102 -4.7216 -12.1300 28.6592 -25.9892 4.8961 20.3962
0.132568 0.970432 -0.262001 9.8331 7.0639 1.1106 -14.1169 -0.7314 0.0119 7.2284 5.1038 0.2639 26.0854 2.8292 11.7411 -26.5167 18.0489 -13.7376 -1.5854 4.3706 1.5418 -18.2494 -63.5568 -115.4926 0.0000 11.7120 -3.1024 0 0 0 0 0 0 0 0 0 0 0 0 0 0 0 0 0 0 0 0 0 2.5532 -8.2357 -35.6270 15.5271 77.6794 106.0966 0.0000 -3.7531 -0.5261 0 0 0 0 0 0 0 0 0 0 0 0 0 0 0 0 0 0 0 0 0 -17.1930 5.4539 3.8111 28.5826 -19.5087 -10.3250 14.4942 -16.1480 -4.6918 -12.1628 28.5998 -26.0053 4.9043 20.3886
0.131877 0.970404 -0.261821 9.8980 6.9375 1.1214 -14.0596 -0.7715 -0.0085 7.3093 5.3737 0.2874 25.8011 2.3373 12.1231 -26.8273 17.4037 -13.6001 -1.4751 4.1269 1.9797 -18.0388 -63.0633 -115.2529 0.0000 11.6659 -3.1476 0 0 0 0 0 0 0 0 0 0 0 0 0 0 0 0 0 0 0 0 0 2.6652 -8.7455 -34.2006 17.1934 78.2394 108.0966 0.0000 -3.6823 -0.4335 0 0 0 0 0 0 0 0 0 0 0 0 0 0 0 0 0 0 0 0 0 -17.1960 5.4823 3.8216 28.5215 -19.5028 -10.3266 14.4876 -16.1977 -4.6547 -12.1552 28.5509 -26.0317 4.9048 20.4380
0.131143 0.970389 -0.261605 9.9605 6.8180 1.1293 -14.0528 -0.8369 -0.0186 7.3824 5.5571 0.3112 25.6937 2.3725 12.0078 -26.9812 17.4136 -13.7407 -1.5009 4.0408 2.3562 -17.8633 -62.6578 -115.0311 0.0000 11.6944 -3.3483 0 0 0 0 0 0 0 0 0 0 0 0 0 0 0 0 0 0 0 0 0 2.7316 -8.6602 -33.8653 19.0377 78.1587 110.1456 0.0000 -3.6054 -0.3983 0 0 0 0 0 0 0 0 0 0 0 0 0 0 0 0 0 0 0 0 0 -17.1954 5.5191 3.8325 28.4590 -19.4906 -10.3416 14.4995 -16.2422 -4.6119 -12.1546 28.5011 -26.0508 4.9006 20.4856
0.130426 0.970412 -0.261333 10.0216 6.6942 1.1461 -14.0697 -0.8695 -0.0051 7.4812 5.6141 0.3393 25.6247 2.5172 11.8673 -27.2274 17.5358 -13.8229 -1.5492 4.0240 2.6276 -17.6588 -62.3534 -114.8103 0.0000 11.7679 -3.4006 0 0 0 0 0 0 0 0 0 0 0 0 0 0 0 0 0 0 0 0 0 2.7379 -8.3674 -33.9111 20.8231 77.9258 112.1858 0.0000 -3.4384 -0.6045 0 0 0 0 0 0 0 0 0 0 0 0 0 0 0 0 0 0 0 0 0 -17.1521 5.5047 3.6916 28.3204 -19.4843 -10.3318 14.5469 -16.2821 -4.5700 -12.1168 28.4452 -26.0734 4.8684 20.5193
0.129705 0.970376 -0.261005 10.0686 6.6035 1.1296 -14.1001 -0.9175 -0.0236 7.6163 5.7672 0.3514 25.5134 2.6859 11.6565 -27.3638 17.7017 -13.9647 -1.6358 4.0177 2.9595 -17.4133 -62.1899 -114.6040 0.0000 11.7654 -3.3917 0 0 0 0 0 0 0 0 0 0 0 0 0 0 0 0 0 0 0 0 0 2.7734 -8.1965 -33.8480 22.6119 77.8193 114.1348 0.0000 -3.2432 -0.7666 0 0 0 0 0 0 0 0 0 0 0 0 0 0 0 0 0 0 0 0 0 -17.2025 5.6139 3.8728 28.3926 -19.4634 -10.3513 14.4816 -16.2966 -4.5065 -12.1456 28.3881 -26.0939 4.8406 20.5284
0.129012 0.970325 -0.260728 10.1167 6.4980 1.1234 -14.0872 -0.8990 0.0103 7.7122 5.8096 0.3946 25.4125 2.6831 11.6454 -27.7211 17.5105 -13.8829 -1.5823 3.9869 3.1373 -17.4268 -61.9076 -114.3496 0.0000 11.7373 -3.4631 0 0 0 0 0 0 0 0 0 0 0 0 0 0 0 0 0 0 0 0 0 2.8680 -8.2775 -33.2329 24.1152 77.9756 116.0455 0.0000 -2.9716 -0.8205 0 0 0 0 0 0 0 0 0 0 0 0 0 0 0 0 0 0 0 0 0 -17.2014 5.6367 3.7726 28.3598 -19.4751 -10.3327 14.4857 -16.3264 -4.4475 -12.1193 28.3509 -26.1200 4.8512 20.5615
0.1283 0.970274 -0.260434 10.1547 6.4308 1.1391 -14.0658 -0.9240 0.0155 7.7867 5.8547 0.4120 25.2532 2.7202 11.6153 -27.9090 17.3924 -13.7576 -1.6990 4.0121 3.4332 -17.2523 -61.7427 -114.1958 0.0000 11.7186 -3.5197 0 0 0 0 0 0 0 0 0 0 0 0 0 0 0 0 0 0 0 0 0 2.8945 -8.2566 -32.8913 25.6335 78.0808 117.7708 0.0000 -2.4648 -0.9149 0 0 0 0 0 0 0 0 0 0 0 0 0 0 0 0 0 0 0 0 0 -17.2012 5.6563 3.7442 28.3374 -19.4595 -10.3367 14.4546 -16.3272 -4.4059 -12.1114 28.2756 -26.1937 4.8225 20.7292
